<mxfile host="app.diagrams.net" agent="Mozilla/5.0 (Macintosh; Intel Mac OS X 10_15_7) AppleWebKit/537.36 (KHTML, like Gecko) Chrome/128.0.0.0 Safari/537.36" version="24.7.12">
  <diagram name="第 1 页" id="_6v1Trwf-qAzEogoHyOm">
    <mxGraphModel dx="1242" dy="707" grid="1" gridSize="10" guides="1" tooltips="1" connect="1" arrows="1" fold="1" page="1" pageScale="1" pageWidth="827" pageHeight="1169" math="0" shadow="0">
      <root>
        <mxCell id="0" />
        <mxCell id="1" parent="0" />
        <mxCell id="5xvOlDxAE2iD_ZHWfBLX-1" value="LLM-as-a-Data-Production-Planner Prompt" style="swimlane;rounded=1;align=left;fillColor=#B3B3B3;strokeWidth=2;fontSize=14;" vertex="1" parent="1">
          <mxGeometry x="370" y="490" width="600" height="170" as="geometry" />
        </mxCell>
        <mxCell id="5xvOlDxAE2iD_ZHWfBLX-3" value="&lt;div&gt;You are a data production planner, given a situation of online QA developer behavior data statistics, which contains more than 40 sub-categories under 10 latitudes, please output a data production plan that is close to online situation.&lt;/div&gt;&lt;div&gt;Online QA developer&amp;nbsp;behavior statistics.&lt;/div&gt;&lt;div&gt;&lt;font color=&quot;#3333ff&quot;&gt;{statistics}&lt;/font&gt;&lt;/div&gt;&lt;div&gt;Number of production data:&lt;/div&gt;&lt;div&gt;&lt;font color=&quot;#3333ff&quot;&gt;{number}&lt;/font&gt;&lt;/div&gt;&lt;div&gt;Output a data production plan in json format, with each piece of production data outputting the fine-grained classification under the 10 latitudes&amp;nbsp;to which it belongs:&lt;/div&gt;" style="text;html=1;align=left;verticalAlign=middle;whiteSpace=wrap;rounded=0;" vertex="1" parent="5xvOlDxAE2iD_ZHWfBLX-1">
          <mxGeometry x="10" y="45" width="590" height="100" as="geometry" />
        </mxCell>
      </root>
    </mxGraphModel>
  </diagram>
</mxfile>
